<?xml version="1.0" standalone="no"?>
<!DOCTYPE svg PUBLIC "-//W3C//DTD SVG 20010904//EN"
 "http://www.w3.org/TR/2001/REC-SVG-20010904/DTD/svg10.dtd">
<svg version="1.0" xmlns="http://www.w3.org/2000/svg"
 width="300.000000pt" height="300.000000pt" viewBox="0 0 300.000000 300.000000"
 preserveAspectRatio="xMidYMid meet">

<g transform="translate(0.000000,300.000000) scale(0.100000,-0.100000)"
fill="#000000" stroke="none">
<path d="M0 1500 l0 -1250 1500 0 1500 0 0 1250 0 1250 -1500 0 -1500 0 0
-1250z m2446 1225 c15 -12 16 -16 5 -24 -7 -5 -10 -14 -7 -20 4 -6 4 -20 1
-31 -9 -28 -51 -27 -61 3 -12 35 -13 47 -3 47 6 0 5 8 -1 20 -10 18 -8 20 18
20 15 0 37 -7 48 -15z m244 -26 c0 -10 -10 -19 -25 -21 -19 -4 -23 -2 -15 7 5
6 7 15 4 18 -3 3 0 12 7 20 15 16 29 5 29 -24z m60 31 c0 -13 -20 -13 -40 0
-12 8 -9 10 13 10 15 0 27 -4 27 -10z m-76 -100 c-9 -16 -20 -30 -25 -30 -6 0
-9 -8 -8 -17 4 -48 1 -50 -62 -51 -55 -1 -61 1 -56 18 3 11 -1 20 -12 23 -9 2
-17 14 -18 27 -2 19 0 20 10 7 7 -8 26 -17 44 -19 28 -4 31 -2 22 14 -5 10
-16 18 -24 18 -34 0 -19 15 15 16 30 0 40 -4 43 -18 5 -18 6 -18 25 -2 11 9
18 23 15 30 -3 10 3 14 20 14 25 0 25 -1 11 -30z m-174 10 c0 -5 -4 -10 -10
-10 -5 0 -10 5 -10 10 0 6 5 10 10 10 6 0 10 -4 10 -10z m-655 -183 c4 -13 5
-45 3 -72 -2 -38 -7 -49 -24 -56 -29 -10 -68 11 -72 40 -4 25 23 61 45 61 7 0
13 8 13 18 0 37 27 44 35 9z m-1087 -4 c2 -9 -7 -13 -27 -13 -34 0 -55 -27
-44 -57 9 -23 23 -33 51 -33 12 0 22 -4 22 -10 0 -16 -67 -12 -84 6 -16 16
-21 71 -8 90 21 31 81 42 90 17z m362 2 c0 -8 -4 -15 -9 -15 -13 0 -22 16 -14
24 11 11 23 6 23 -9z m358 -2 c2 -9 -7 -13 -27 -13 -34 0 -55 -27 -44 -57 9
-23 23 -33 51 -33 12 0 22 -4 22 -10 0 -16 -67 -12 -84 6 -16 16 -21 71 -8 90
21 31 81 42 90 17z m44 -50 c4 -78 4 -78 -17 -70 -21 9 -22 137 -1 137 11 0
15 -18 18 -67z m-462 43 c0 -8 5 -16 11 -18 8 -3 8 -10 -2 -26 -11 -18 -11
-26 -1 -42 16 -27 15 -30 -8 -30 -16 0 -20 7 -20 33 0 18 -6 39 -12 46 -10 11
-10 14 0 18 6 3 12 11 12 19 0 8 5 14 10 14 6 0 10 -6 10 -14z m-230 -33 c0
-7 -7 -13 -15 -13 -10 0 -15 -11 -15 -35 0 -24 -5 -35 -15 -35 -11 0 -15 12
-15 49 0 49 1 50 30 49 18 -1 30 -6 30 -15z m90 -3 c15 -27 5 -40 -31 -40 -18
0 -28 -4 -24 -10 3 -5 17 -10 31 -10 13 0 24 -4 24 -10 0 -16 -57 -12 -74 6
-20 19 -20 34 0 62 19 28 60 29 74 2z m90 0 c6 -12 10 -33 8 -48 -3 -23 -8
-27 -41 -30 -27 -2 -39 1 -43 13 -8 20 13 45 38 45 11 0 16 5 13 10 -4 6 -15
8 -26 5 -13 -4 -19 -2 -19 9 0 25 57 21 70 -4z m110 -30 c0 -27 -4 -50 -10
-50 -5 0 -10 23 -10 50 0 28 5 50 10 50 6 0 10 -22 10 -50z m56 10 c9 -24 13
-29 13 -14 1 23 26 62 35 53 3 -3 -1 -27 -10 -53 -21 -60 -42 -58 -66 7 -17
45 -17 48 -1 45 9 -2 22 -19 29 -38z m128 34 c9 -3 16 -17 16 -30 0 -20 -5
-24 -31 -24 -17 0 -28 -4 -24 -10 3 -5 17 -10 31 -10 13 0 24 -4 24 -10 0 -5
-16 -10 -35 -10 -50 0 -73 50 -39 84 16 17 33 20 58 10z m322 -19 c15 -23 15
-27 0 -50 -23 -35 -72 -35 -88 0 -9 19 -8 29 6 50 22 33 60 33 82 0z m54 -16
c0 -52 24 -48 28 4 2 24 8 37 18 37 10 0 14 -13 14 -49 0 -46 -1 -49 -29 -53
-47 -7 -61 7 -61 57 0 33 4 45 15 45 11 0 15 -11 15 -41z m-522 -268 c19 -11
11 -45 -11 -49 -19 -4 -32 20 -23 43 6 17 15 19 34 6z m480 0 c19 -11 11 -45
-11 -49 -19 -4 -32 20 -23 43 6 17 15 19 34 6z m-858 -58 l1 -58 22 28 c15 18
32 27 51 27 l28 0 -26 -35 -27 -35 31 -40 32 -40 -35 0 c-27 0 -40 7 -56 28
l-20 27 -1 -27 c0 -23 -4 -28 -25 -28 l-25 0 0 105 0 105 25 0 c24 0 25 -3 25
-57z m1060 27 c0 -28 3 -30 35 -30 43 0 55 -20 55 -94 0 -56 0 -56 -30 -56
-30 0 -30 1 -30 55 0 42 -3 55 -15 55 -12 0 -15 -13 -15 -55 0 -52 -1 -55 -25
-55 -17 0 -25 6 -25 18 -1 9 -2 54 -3 100 -2 46 -1 85 2 88 2 2 15 4 28 4 19
0 23 -5 23 -30z m-1414 -40 c11 -58 16 -54 30 23 6 35 8 37 44 37 l37 0 6 -67
c12 -126 11 -133 -23 -133 -30 0 -30 1 -31 58 l-1 57 -12 -55 c-11 -52 -13
-55 -41 -55 -28 0 -30 3 -41 55 l-12 55 -1 -57 c-1 -55 -2 -58 -26 -58 -25 0
-25 0 -25 93 0 52 3 97 7 101 4 4 23 6 43 4 34 -3 35 -5 46 -58z m834 30 c0
-11 7 -20 15 -20 8 0 15 -9 15 -20 0 -11 -7 -20 -15 -20 -21 0 -20 -57 1 -78
15 -14 15 -17 -2 -29 -24 -17 -30 -17 -54 7 -13 13 -20 33 -20 60 0 22 -4 40
-10 40 -16 0 -12 37 5 44 8 3 15 12 15 21 0 9 9 15 25 15 18 0 25 -5 25 -20z
m480 0 c0 -11 7 -20 15 -20 8 0 15 -9 15 -20 0 -11 -7 -20 -15 -20 -21 0 -20
-59 2 -75 22 -16 8 -35 -27 -35 -35 0 -50 23 -50 74 0 20 -4 36 -10 36 -16 0
-12 37 5 44 8 3 15 12 15 21 0 9 9 15 25 15 18 0 25 -5 25 -20z m-1046 -42
c22 -30 21 -114 0 -122 -27 -10 -99 -7 -112 6 -15 15 -16 65 0 74 6 4 25 11
42 15 29 8 29 8 -6 4 -31 -3 -38 -1 -38 14 0 26 9 31 56 31 33 0 46 -5 58 -22z
m320 0 c9 -12 16 -33 16 -45 0 -21 -5 -23 -46 -23 -29 0 -43 -4 -39 -11 4 -6
21 -9 38 -7 26 2 32 -1 32 -17 0 -17 -8 -20 -46 -23 -35 -2 -49 1 -64 18 -24
27 -25 83 0 110 26 29 89 28 109 -2z m156 -53 c0 -73 -1 -75 -25 -75 -24 0
-25 2 -25 75 0 73 1 75 25 75 24 0 25 -2 25 -75z m240 53 c0 -43 17 -53 24
-14 6 32 10 36 36 36 27 0 30 -4 37 -42 l7 -43 9 43 c7 36 12 42 33 42 29 0
29 -7 6 -85 -17 -55 -21 -60 -49 -63 -28 -3 -31 0 -40 40 l-9 43 -8 -43 c-8
-41 -10 -43 -39 -40 -28 3 -32 8 -49 68 -23 83 -23 80 12 80 24 0 30 -4 30
-22z m240 -53 c0 -73 -1 -75 -25 -75 -24 0 -25 2 -25 75 0 73 1 75 25 75 24 0
25 -2 25 -75z m-582 -144 c19 -11 11 -45 -11 -49 -19 -4 -32 20 -23 43 6 17
15 19 34 6z m632 -86 c0 -50 4 -85 10 -85 16 0 11 -37 -6 -44 -8 -3 -24 -1
-35 4 -17 10 -19 22 -19 110 0 100 0 100 25 100 25 0 25 -1 25 -85z m512 11
c2 -41 1 -87 -2 -102 -5 -27 -9 -29 -56 -32 -46 -3 -54 0 -73 24 -12 15 -21
38 -21 51 0 31 42 73 75 73 21 0 25 5 25 30 0 25 4 30 24 30 23 0 25 -3 28
-74z m-1742 39 c0 -22 -4 -25 -33 -25 -40 0 -57 -15 -57 -52 0 -33 39 -63 70
-53 17 5 20 2 20 -19 0 -24 -3 -26 -46 -26 -37 0 -51 5 -75 29 -66 66 -15 170
84 171 33 0 37 -3 37 -25z m1158 -2 c3 -20 -1 -23 -32 -23 -84 0 -90 -98 -6
-104 27 -2 36 -7 38 -23 4 -25 -24 -34 -73 -23 -46 10 -71 33 -79 70 -13 69
44 133 114 128 28 -2 36 -8 38 -25z m-648 -3 c0 -11 7 -20 15 -20 8 0 15 -9
15 -20 0 -11 -7 -20 -15 -20 -10 0 -15 -11 -15 -35 0 -19 5 -35 10 -35 6 0 10
-9 10 -20 0 -16 -7 -20 -30 -20 -35 0 -50 23 -50 74 0 20 -4 36 -10 36 -16 0
-12 37 5 44 8 3 15 12 15 21 0 9 9 15 25 15 18 0 25 -5 25 -20z m374 -21 c25
-12 51 -63 40 -80 -3 -5 -23 -9 -45 -9 -27 0 -38 -4 -33 -11 3 -6 19 -9 35 -7
25 4 29 1 29 -18 0 -44 -95 -40 -119 5 -24 44 -7 105 32 121 30 12 32 12 61
-1z m-764 -25 c0 -14 -8 -25 -20 -29 -16 -5 -20 -15 -20 -51 0 -42 -1 -44 -30
-44 l-30 0 0 74 0 75 50 -1 c45 -1 50 -4 50 -24z m144 4 c9 -12 16 -33 16 -45
0 -21 -5 -23 -46 -23 -29 0 -43 -4 -39 -11 4 -6 21 -9 38 -7 26 2 32 -1 32
-17 0 -17 -8 -20 -46 -23 -35 -2 -49 1 -64 18 -24 27 -25 83 0 110 26 29 89
28 109 -2z m150 0 c22 -30 21 -114 0 -122 -27 -10 -99 -7 -112 6 -15 15 -16
65 0 74 6 4 25 11 42 15 29 8 29 8 -6 4 -31 -3 -38 -1 -38 14 0 26 9 31 56 31
33 0 46 -5 58 -22z m196 -53 c0 -73 -1 -75 -25 -75 -24 0 -25 2 -25 75 0 73 1
75 25 75 24 0 25 -2 25 -75z m81 33 l13 -43 9 43 c9 38 13 42 39 42 32 0 33 7
-2 -95 -16 -47 -19 -50 -50 -50 -31 0 -34 3 -50 50 -35 102 -35 95 -1 95 27 0
32 -5 42 -42z m699 22 c40 -40 15 -128 -37 -131 -38 -3 -59 3 -77 22 -26 24
-26 81 -1 109 25 27 88 27 115 0z m100 -35 c0 -42 3 -55 15 -55 12 0 15 13 15
55 0 52 2 55 24 55 23 0 25 -3 28 -75 l3 -75 -62 0 c-74 0 -83 10 -83 94 0 56
0 56 30 56 30 0 30 -1 30 -55z m329 -49 c17 -20 3 -46 -24 -46 -29 0 -38 13
-30 40 7 23 37 26 54 6z m-859 -90 c0 -3 -4 -8 -10 -11 -5 -3 -10 -1 -10 4 0
6 5 11 10 11 6 0 10 -2 10 -4z m-104 -52 c-7 -19 23 -52 32 -37 4 5 19 13 34
17 21 5 30 2 38 -13 24 -46 6 -90 -39 -94 -24 -1 -26 -8 -10 -24 6 -6 8 -16 5
-22 -10 -16 -36 -13 -36 4 0 8 -11 25 -25 38 -21 19 -26 33 -27 79 -1 52 -3
56 -20 47 -26 -14 -22 -4 9 25 23 22 29 23 36 10 5 -8 6 -22 3 -30z m-543 9
c-7 -3 -13 -11 -13 -19 0 -8 6 -14 13 -15 10 0 10 -2 0 -6 -8 -2 -14 -25 -15
-51 l-1 -47 -4 40 c-3 22 -9 45 -15 52 -7 9 -7 13 1 13 6 0 11 9 11 19 0 19
20 34 30 23 3 -2 -1 -7 -7 -9z m348 -36 c10 3 26 0 34 -7 17 -14 21 -90 5 -90
-5 0 -10 18 -10 39 0 43 -9 55 -34 45 -9 -3 -16 -22 -19 -47 -2 -23 -4 -8 -4
33 0 41 2 63 4 49 3 -21 9 -26 24 -22z m679 24 c0 -14 8 -21 28 -23 25 -3 27
-7 30 -50 2 -27 -1 -48 -7 -48 -5 0 -11 19 -13 43 -2 29 -8 42 -18 42 -10 0
-16 -13 -18 -42 -5 -70 -22 -49 -22 27 0 40 4 70 10 70 6 0 10 -9 10 -19z
m310 -52 l0 -70 -36 3 c-27 2 -39 9 -45 24 -10 29 11 68 39 72 14 2 22 10 22
23 0 10 5 19 10 19 6 0 10 -30 10 -71z m-1722 -1 c12 -33 20 -63 17 -66 -2 -3
-9 7 -14 22 -14 36 -58 37 -67 1 -3 -14 -10 -25 -15 -25 -7 0 22 97 36 120 12
20 21 9 43 -52z m112 11 c18 -33 4 -69 -30 -75 -22 -5 -30 -13 -33 -33 -2 -14
-5 9 -6 52 l-1 77 30 0 c20 0 33 -7 40 -21z m100 0 c18 -33 4 -69 -30 -75 -22
-5 -30 -13 -33 -33 -2 -14 -5 9 -6 52 l-1 77 30 0 c20 0 33 -7 40 -21z m70 14
c-8 -2 -22 -7 -30 -9 -10 -4 -7 -11 15 -28 35 -28 29 -56 -12 -55 -15 0 -21 3
-13 6 8 2 22 7 30 10 11 3 8 10 -14 28 -35 28 -30 55 11 54 15 0 21 -3 13 -6z
m188 -5 c15 -15 15 -61 0 -76 -21 -21 -57 -14 -70 13 -23 51 32 101 70 63z
m60 -2 c-9 -7 -18 -30 -21 -52 -3 -36 -4 -35 -5 11 -2 46 0 51 21 52 20 2 20
1 5 -11z m148 -11 c18 -27 -2 -67 -36 -75 -15 -3 -27 -15 -31 -30 -4 -16 -7 1
-8 46 -1 39 2 74 6 78 13 13 56 1 69 -19z m202 0 c14 -29 2 -69 -23 -79 -40
-15 -78 41 -55 83 16 31 63 28 78 -4z m299 10 c-11 -8 -17 -26 -17 -49 0 -20
-4 -36 -10 -36 -5 0 -10 21 -10 47 0 46 -14 51 -22 8 -2 -10 -14 -22 -28 -25
-24 -6 -24 -7 7 -14 18 -4 36 -13 40 -19 5 -7 15 -12 23 -12 8 0 16 -10 18
-22 3 -18 -2 -23 -19 -23 -18 0 -20 -2 -9 -15 9 -11 10 -19 3 -26 -16 -16 -43
1 -43 27 0 24 -23 33 -35 14 -9 -15 -28 -12 -22 4 3 7 1 18 -5 24 -8 8 -8 15
1 26 8 9 10 28 6 50 -4 19 -4 40 0 46 4 6 33 10 72 9 55 -2 63 -4 50 -14z m87
-1 c25 -66 -16 -121 -58 -78 -20 20 -4 54 25 54 12 0 19 5 16 13 -2 6 -12 11
-21 11 -9 -1 -16 2 -16 7 0 16 48 10 54 -7z m92 8 c33 -23 18 -83 -26 -97 -11
-3 -20 -15 -20 -26 0 -10 -4 -19 -10 -19 -6 0 -10 32 -10 75 l0 75 28 0 c15 0
32 -4 38 -8z m151 -29 l16 -38 18 40 c11 26 18 33 18 20 0 -11 -13 -47 -29
-80 -26 -52 -29 -56 -24 -25 3 21 -1 50 -10 72 -17 41 -19 48 -10 48 3 0 12
-17 21 -37z m303 18 c15 -29 13 -31 -26 -31 -28 0 -35 -3 -32 -17 2 -10 16
-21 33 -24 l30 -7 -32 -1 c-37 -1 -58 26 -47 62 12 40 56 51 74 18z m50 8
l-25 -10 29 -24 c35 -28 30 -55 -11 -54 -15 0 -21 3 -13 6 8 2 22 7 30 9 10 4
7 11 -15 28 -33 26 -29 56 7 55 23 0 23 0 -2 -10z m57 -66 c-2 -16 -4 -3 -4
27 0 30 2 43 4 28 2 -16 2 -40 0 -55z m94 45 c-5 -24 -13 -34 -29 -36 -29 -4
-18 -22 13 -22 27 0 41 -26 24 -46 -15 -19 -63 -18 -79 1 -10 12 -10 18 -1 29
8 9 10 28 6 50 -9 45 -1 56 39 56 32 0 33 -1 27 -32z m95 -23 l2 -50 -7 45
c-5 36 -10 45 -26 45 -16 0 -21 -9 -26 -45 l-6 -45 -1 51 -2 51 33 -1 c32 -1
32 -2 33 -51z m-530 -72 c-10 -26 -18 -8 -9 23 5 21 8 24 11 11 2 -10 1 -25
-2 -34z m574 35 c0 -7 -5 -20 -10 -28 -8 -12 -10 -9 -10 13 0 15 5 27 10 27 6
0 10 -6 10 -12z m-2518 -42 c6 4 8 -1 3 -15 -5 -15 -2 -21 10 -21 10 0 13 -5
9 -12 -5 -8 -2 -9 10 -5 14 6 17 2 15 -16 -2 -12 0 -28 4 -34 5 -8 3 -13 -5
-13 -9 -1 -7 -5 5 -14 17 -14 24 -32 8 -21 -6 3 -8 -13 -5 -40 4 -35 2 -46
-11 -51 -9 -4 -14 -13 -10 -22 7 -18 -13 -82 -25 -82 -5 0 -7 -7 -4 -15 5 -11
2 -13 -10 -9 -14 5 -16 30 -15 198 0 105 3 185 6 178 2 -6 9 -9 15 -6z m1358
-67 c0 -11 7 -19 18 -19 24 0 38 -11 46 -37 10 -30 -32 -74 -63 -66 -19 5 -21
12 -21 80 0 47 4 72 10 68 6 -3 10 -15 10 -26z m-870 -50 l0 -70 -31 3 c-38 4
-54 26 -45 62 5 19 15 28 36 33 21 4 30 11 30 24 0 11 2 19 5 19 3 0 5 -32 5
-71z m550 0 l0 -70 -31 3 c-38 4 -54 26 -45 62 5 19 15 28 36 33 21 4 30 11
30 24 0 11 2 19 5 19 3 0 5 -32 5 -71z m-731 -11 l18 -43 13 43 c7 23 17 42
21 42 11 0 -25 -93 -38 -97 -5 -2 -15 13 -22 34 -7 21 -15 44 -17 51 -3 6 -3
12 1 12 3 0 14 -19 24 -42z m78 -35 c-2 -16 -4 -3 -4 27 0 30 2 43 4 28 2 -16
2 -40 0 -55z m201 50 c3 -20 -1 -23 -33 -23 -32 0 -35 -2 -25 -19 5 -11 22
-22 37 -24 28 -4 28 -4 -2 -6 -50 -2 -69 34 -44 80 15 29 63 22 67 -8z m90 15
c13 -13 16 -47 6 -72 -10 -26 -62 -20 -76 9 -21 46 36 97 70 63z m160 -40 c3
-48 3 -48 -28 -48 -34 0 -49 22 -30 45 7 8 21 15 32 15 11 0 18 5 15 13 -2 6
-14 12 -26 11 -11 0 -21 3 -21 8 0 5 12 8 28 6 25 -3 27 -7 30 -50z m98 -3 l2
-50 -7 45 c-5 36 -10 45 -26 45 -16 0 -21 -9 -26 -45 l-6 -45 -1 51 -2 51 33
-1 c32 -1 32 -2 33 -51z m190 20 c7 -40 19 -38 27 5 8 39 26 39 34 0 3 -16 9
-30 13 -30 5 0 11 14 15 30 4 17 11 30 15 30 9 0 -13 -86 -25 -98 -8 -8 -25
18 -25 41 0 28 -18 19 -25 -13 -4 -16 -11 -30 -16 -30 -5 0 -9 1 -9 3 0 1 -7
23 -15 50 -8 26 -10 47 -5 47 5 0 12 -16 16 -35z m194 16 c15 -29 13 -31 -26
-31 -28 0 -35 -3 -32 -17 2 -11 15 -20 33 -23 25 -5 27 -7 12 -13 -42 -16 -81
39 -57 82 14 27 56 28 70 2z m-600 -73 c0 -7 -5 -20 -10 -28 -8 -12 -10 -9
-10 13 0 15 5 27 10 27 6 0 10 -6 10 -12z m2004 -75 c1 -37 -25 -73 -52 -73
-6 0 -12 -6 -15 -12 -2 -8 -16 -1 -35 20 -27 29 -30 37 -20 55 17 33 38 45 75
43 18 -1 33 3 33 8 0 5 3 6 6 3 4 -4 7 -24 8 -44z m-110 -375 c-3 -12 -19 -49
-34 -82 l-29 -61 0 83 -1 82 36 0 c32 0 35 -2 28 -22z m135 -60 l0 -83 -29 61
c-47 102 -47 104 -6 104 l36 0 -1 -82z m-2269 -33 c0 -41 -4 -57 -15 -62 -21
-7 -32 4 -17 19 7 7 12 31 12 55 0 24 5 43 10 43 6 0 10 -25 10 -55z m121 42
c-1 -4 -1 -27 -1 -52 0 -25 -5 -45 -10 -45 -6 0 -10 23 -9 55 1 31 6 54 11 53
5 -2 9 -7 9 -11z m2072 -40 c9 -23 17 -46 17 -50 0 -13 -28 -7 -34 8 -3 8 -13
15 -22 15 -11 0 -14 5 -9 18 4 9 10 25 12 35 8 27 16 21 36 -26z m-2113 8 c26
-32 -13 -81 -47 -59 -35 22 -23 74 17 74 10 0 23 -7 30 -15z m118 -27 c2 -22
-1 -38 -7 -38 -6 0 -11 14 -11 30 0 17 -4 30 -10 30 -5 0 -10 -13 -10 -30 0
-16 -4 -30 -10 -30 -5 0 -10 18 -10 41 0 38 1 40 28 37 23 -3 27 -8 30 -40z
m120 0 c4 -43 -15 -53 -20 -11 -2 14 -9 28 -16 31 -7 2 -12 0 -11 -5 4 -23 -2
-53 -11 -53 -5 0 -10 18 -10 41 0 39 1 40 33 37 29 -3 32 -6 35 -40z m78 31
c4 -8 9 -7 15 2 8 11 12 10 24 -5 13 -17 15 -18 15 -3 0 9 7 17 15 17 8 0 15
-8 15 -17 0 -15 2 -14 14 3 21 28 30 11 16 -30 -13 -40 -40 -49 -41 -13 l0 22
-9 -22 c-12 -29 -30 -30 -37 -3 l-6 21 -14 -21 c-23 -33 -73 -20 -73 20 0 33
50 55 66 29z m-843 -80 c22 -26 36 -86 17 -74 -10 6 -11 0 -6 -28 7 -37 -14
-77 -40 -77 -7 0 -15 -6 -17 -12 -3 -7 -6 38 -6 100 -1 101 1 112 17 112 10 0
25 -9 35 -21z m2597 -53 c0 -34 -1 -35 -40 -33 -38 2 -40 4 -35 27 9 34 13 36
28 16 11 -15 13 -15 27 4 19 26 20 26 20 -14z m90 2 c0 7 7 12 15 12 8 0 15
-7 15 -15 0 -8 -6 -15 -12 -15 -9 0 -8 -4 2 -10 13 -8 12 -10 -2 -10 -10 0
-18 5 -18 12 0 9 -3 9 -12 0 -20 -20 -28 -14 -28 25 l0 36 20 -23 c11 -13 20
-18 20 -12z m-52 -16 c2 -15 -2 -22 -12 -22 -11 0 -16 9 -16 26 0 31 23 28 28
-4z"/>
<path d="M1792 2401 c-16 -10 -12 -43 6 -49 8 -2 12 7 12 27 0 34 0 34 -18 22z"/>
<path d="M865 2400 c-3 -5 3 -10 15 -10 12 0 18 5 15 10 -3 6 -10 10 -15 10
-5 0 -12 -4 -15 -10z"/>
<path d="M960 2360 c0 -5 7 -10 15 -10 8 0 15 5 15 10 0 6 -7 10 -15 10 -8 0
-15 -4 -15 -10z"/>
<path d="M1265 2400 c-3 -5 3 -10 15 -10 12 0 18 5 15 10 -3 6 -10 10 -15 10
-5 0 -12 -4 -15 -10z"/>
<path d="M1565 2390 c-7 -23 1 -40 19 -40 18 0 27 35 13 49 -16 16 -25 14 -32
-9z"/>
<path d="M620 1960 c0 -5 7 -10 15 -10 8 0 15 5 15 10 0 6 -7 10 -15 10 -8 0
-15 -4 -15 -10z"/>
<path d="M948 2013 c7 -3 16 -2 19 1 4 3 -2 6 -13 5 -11 0 -14 -3 -6 -6z"/>
<path d="M2124 1726 c-9 -24 0 -51 19 -54 14 -3 17 4 17 32 0 26 -4 36 -15 36
-9 0 -18 -6 -21 -14z"/>
<path d="M1318 1733 c7 -3 16 -2 19 1 4 3 -2 6 -13 5 -11 0 -14 -3 -6 -6z"/>
<path d="M668 1733 c7 -3 16 -2 19 1 4 3 -2 6 -13 5 -11 0 -14 -3 -6 -6z"/>
<path d="M810 1680 c0 -5 7 -10 15 -10 8 0 15 5 15 10 0 6 -7 10 -15 10 -8 0
-15 -4 -15 -10z"/>
<path d="M1784 1726 c-9 -23 0 -51 17 -54 19 -4 32 23 24 49 -7 22 -33 25 -41
5z"/>
<path d="M1370 1480 c-13 -24 2 -60 25 -60 30 0 38 54 11 72 -17 12 -25 9 -36
-12z"/>
<path d="M1320 1455 c0 -33 1 -35 16 -21 17 18 16 47 -3 54 -9 2 -13 -8 -13
-33z"/>
<path d="M2060 1485 c-18 -21 -4 -65 20 -65 17 0 20 7 20 40 0 43 -17 53 -40
25z"/>
<path d="M356 1505 c-10 -26 -7 -35 9 -35 17 0 19 18 6 38 -7 11 -10 10 -15
-3z"/>
<path d="M450 1460 c0 -33 3 -40 20 -40 10 0 24 9 30 20 14 26 -3 60 -30 60
-17 0 -20 -7 -20 -40z"/>
<path d="M550 1460 c0 -33 3 -40 20 -40 10 0 24 9 30 20 14 26 -3 60 -30 60
-17 0 -20 -7 -20 -40z"/>
<path d="M810 1480 c-14 -26 3 -60 30 -60 24 0 38 44 20 65 -17 21 -37 19 -50
-5z"/>
<path d="M1017 1493 c-2 -4 -5 -23 -5 -41 -1 -28 2 -33 20 -30 29 4 46 33 32
56 -12 19 -39 28 -47 15z"/>
<path d="M1220 1486 c-18 -23 -8 -61 17 -64 17 -3 24 3 29 22 4 16 1 32 -6 41
-16 19 -24 19 -40 1z"/>
<path d="M1466 1484 c-7 -19 1 -34 19 -34 8 0 16 4 19 9 9 14 -4 41 -19 41 -7
0 -16 -7 -19 -16z"/>
<path d="M1465 1400 c-4 -7 -1 -16 6 -21 20 -12 26 -11 33 7 4 9 2 13 -5 8 -6
-4 -15 -1 -19 6 -6 9 -9 10 -15 0z"/>
<path d="M1621 1451 c-16 -10 -6 -31 15 -31 8 0 14 9 14 20 0 22 -7 25 -29 11z"/>
<path d="M1710 1460 c0 -33 3 -41 16 -38 26 5 41 35 28 56 -6 9 -19 18 -28 20
-13 3 -16 -5 -16 -38z"/>
<path d="M2157 1494 c-14 -14 -6 -24 19 -24 16 0 24 5 22 13 -5 14 -31 21 -41
11z"/>
<path d="M2354 1485 c-4 -9 -2 -21 4 -27 15 -15 44 -1 40 19 -4 23 -36 29 -44
8z"/>
<path d="M2354 1399 c-3 -6 -2 -15 4 -21 15 -15 46 -5 50 15 3 12 -3 17 -22
17 -14 0 -28 -5 -32 -11z"/>
<path d="M1384 1266 c-11 -28 0 -61 20 -61 27 0 44 30 30 53 -15 22 -43 27
-50 8z"/>
<path d="M466 1264 c-19 -18 -19 -20 -6 -45 6 -10 20 -19 30 -19 17 0 20 7 20
40 0 44 -16 52 -44 24z"/>
<path d="M1016 1264 c-19 -18 -19 -20 -6 -45 6 -10 20 -19 30 -19 17 0 20 7
20 40 0 44 -16 52 -44 24z"/>
<path d="M567 1274 c-14 -14 -6 -24 19 -24 16 0 24 5 22 13 -5 14 -31 21 -41
11z"/>
<path d="M654 1266 c-3 -8 -4 -25 -2 -38 4 -33 52 -33 56 0 6 40 -41 73 -54
38z"/>
<path d="M821 1227 c-13 -16 -5 -27 21 -27 11 0 18 7 18 20 0 23 -22 27 -39 7z"/>
<path d="M1297 1265 c-5 -11 0 -15 19 -15 16 0 24 5 22 13 -7 18 -35 20 -41 2z"/>
<path d="M544 649 c-10 -17 13 -36 27 -22 12 12 4 33 -11 33 -5 0 -12 -5 -16
-11z"/>
<path d="M864 649 c-10 -17 13 -36 27 -22 12 12 4 33 -11 33 -5 0 -12 -5 -16
-11z"/>
<path d="M2641 524 c0 -11 3 -14 6 -6 3 7 2 16 -1 19 -3 4 -6 -2 -5 -13z"/>
<path d="M2721 524 c0 -11 3 -14 6 -6 3 7 2 16 -1 19 -3 4 -6 -2 -5 -13z"/>
<path d="M2681 524 c0 -11 3 -14 6 -6 3 7 2 16 -1 19 -3 4 -6 -2 -5 -13z"/>
</g>
</svg>
